<svg xmlns="http://www.w3.org/2000/svg" width="300" height="450" viewBox="0 0 300 450"><rect width="100%" height="100%" fill="#DDDDDD"/><path fill="#999999" d="M73.75 212.375h3.44v20.97h-2q-.47 0-.78-.15t-.6-.52l-10.95-13.98q.09.96.09 1.77v12.88h-3.44v-20.97h2.05q.24 0 .43.02.18.03.31.09.14.07.27.19t.29.33l10.99 14.03q-.04-.51-.07-1t-.03-.91zm14.13 5.86q1.65 0 3 .54 1.36.53 2.32 1.52.97.99 1.49 2.41t.52 3.17q0 1.77-.52 3.19t-1.49 2.42q-.96 1-2.32 1.54-1.35.54-3 .54-1.67 0-3.04-.54-1.36-.54-2.32-1.54-.97-1-1.5-2.42t-.53-3.19q0-1.75.53-3.17t1.5-2.41q.96-.99 2.32-1.52 1.37-.54 3.04-.54m0 12.57q1.85 0 2.74-1.24.89-1.25.89-3.66t-.89-3.67-2.74-1.26q-1.89 0-2.8 1.27-.9 1.27-.9 3.66t.9 3.65q.91 1.25 2.8 1.25m36.3-7.94q0 2.3-.77 4.23-.76 1.93-2.16 3.32-1.39 1.39-3.35 2.16-1.95.77-4.35.77h-7.98v-20.97h7.98q2.4 0 4.35.78 1.96.77 3.35 2.16 1.4 1.38 2.16 3.31.77 1.93.77 4.24m-4 0q0-1.73-.46-3.1-.45-1.37-1.32-2.32-.86-.95-2.08-1.46-1.23-.5-2.77-.5h-4.07v14.76h4.07q1.54 0 2.77-.51 1.22-.51 2.08-1.46.87-.95 1.32-2.32.46-1.37.46-3.09m6.99-4.4h3.6v14.88h-3.6zm4.09-4.33q0 .46-.19.87-.19.4-.5.71-.31.3-.73.48-.42.19-.9.19-.46 0-.88-.19-.41-.18-.72-.48-.3-.31-.48-.71-.18-.41-.18-.87 0-.48.18-.9t.48-.73q.31-.3.72-.48.42-.18.88-.18.48 0 .9.18t.73.48q.31.31.5.73t.19.9m13.05 5.94-.81 1.29q-.15.23-.31.33-.16.09-.4.09-.26 0-.56-.14-.3-.15-.69-.33t-.89-.32q-.5-.15-1.18-.15-1.06 0-1.66.45-.61.45-.61 1.17 0 .48.32.81.31.33.82.57.52.25 1.17.44.65.2 1.33.43.67.23 1.32.53.66.3 1.17.76.52.45.83 1.09t.31 1.54q0 1.07-.39 1.98-.38.9-1.13 1.56-.76.66-1.87 1.03t-2.56.37q-.76 0-1.5-.14-.73-.13-1.4-.38-.68-.25-1.25-.58t-1.01-.72l.83-1.37q.16-.24.38-.37.21-.14.55-.14.33 0 .63.19.29.19.69.41.39.22.92.4.53.19 1.34.19.64 0 1.09-.15.46-.15.76-.4.29-.24.43-.57t.14-.67q0-.53-.31-.86t-.83-.58q-.51-.25-1.17-.44-.66-.2-1.35-.43t-1.35-.54q-.66-.32-1.18-.79-.51-.48-.82-1.18-.31-.69-.31-1.68 0-.91.36-1.74t1.06-1.44q.71-.62 1.76-.99t2.43-.37q1.54 0 2.8.51t2.1 1.33m6.44 2.74v6.67q.61.74 1.32 1.05.72.3 1.56.3.81 0 1.47-.3.65-.31 1.11-.93.45-.62.7-1.57t.25-2.24q0-1.31-.21-2.22-.21-.9-.61-1.47-.39-.56-.95-.82-.55-.27-1.26-.27-1.12 0-1.9.48-.79.47-1.48 1.32m-.48-3.69.29 1.37q.91-1.03 2.07-1.66 1.16-.64 2.73-.64 1.22 0 2.22.5 1.01.51 1.74 1.48.74.96 1.13 2.37.4 1.42.4 3.25 0 1.66-.45 3.08t-1.28 2.47q-.83 1.04-2.01 1.63-1.19.59-2.65.59-1.25 0-2.13-.39-.89-.38-1.58-1.06v6.09h-3.58v-19.74h2.19q.69 0 .91.66m19.95-.89q1.65 0 3.01.54 1.36.53 2.32 1.52t1.49 2.41q.52 1.42.52 3.17 0 1.77-.52 3.19-.53 1.42-1.49 2.42t-2.32 1.54-3.01.54q-1.67 0-3.03-.54t-2.33-1.54q-.96-1-1.49-2.42t-.53-3.19q0-1.75.53-3.17t1.49-2.41q.97-.99 2.33-1.52 1.36-.54 3.03-.54m0 12.57q1.86 0 2.75-1.24.89-1.25.89-3.66t-.89-3.67-2.75-1.26q-1.88 0-2.79 1.27t-.91 3.66.91 3.65q.91 1.25 2.79 1.25m13.18-11.68.25 1.17q.45-.45.95-.83.5-.39 1.06-.66.55-.26 1.19-.42.64-.15 1.39-.15 1.22 0 2.16.41.95.42 1.58 1.16.63.75.95 1.79.33 1.03.33 2.28v9.47h-3.58v-9.47q0-1.36-.62-2.11-.63-.75-1.9-.75-.93 0-1.74.43-.82.42-1.54 1.14v10.76h-3.58v-14.88h2.19q.69 0 .91.66m13.37-.66h3.6v14.88h-3.6zm4.09-4.33q0 .46-.19.87-.19.4-.5.71-.31.3-.73.48-.42.19-.9.19-.46 0-.88-.19-.41-.18-.72-.48-.3-.31-.48-.71-.18-.41-.18-.87 0-.48.18-.9t.48-.73q.31-.3.72-.48.42-.18.88-.18.48 0 .9.18t.73.48q.31.31.5.73t.19.9m6.74 8.68v6.67q.61.74 1.33 1.05.72.3 1.51.3.83 0 1.49-.3.66-.29 1.12-.92.47-.63.71-1.61.25-.98.25-2.35 0-2.45-.81-3.54-.81-1.1-2.34-1.1-1.03 0-1.79.48-.77.47-1.47 1.32m0-11.02v8.5q.9-.94 2-1.5 1.09-.56 2.5-.56 1.29 0 2.32.51 1.04.51 1.77 1.46.74.95 1.13 2.29.39 1.35.39 3.03 0 1.82-.45 3.3-.45 1.47-1.28 2.53-.84 1.05-2.01 1.63-1.18.58-2.61.58-.7 0-1.26-.14-.57-.14-1.05-.38-.48-.25-.88-.61-.39-.35-.76-.79l-.16 1q-.08.38-.29.54t-.58.16h-2.36v-21.55zm12.92 0h3.58v21.55h-3.58zm9.99 12.4h6.76q0-.7-.2-1.31-.19-.62-.58-1.08-.4-.47-1-.73-.6-.27-1.4-.27-1.55 0-2.44.88-.89.89-1.14 2.51m9.14 2.16h-9.21q.09 1.15.41 1.98.31.83.84 1.38.52.54 1.24.81.71.27 1.58.27t1.5-.21q.64-.2 1.11-.44.47-.25.82-.45.36-.21.69-.21.45 0 .67.34l1.03 1.3q-.6.7-1.34 1.17t-1.54.75q-.8.29-1.64.4-.83.12-1.62.12-1.55 0-2.88-.52-1.33-.51-2.32-1.52t-1.55-2.49q-.57-1.49-.57-3.45 0-1.52.5-2.86.49-1.34 1.41-2.34.92-.99 2.25-1.57 1.32-.58 2.99-.58 1.41 0 2.6.45t2.04 1.31q.86.87 1.34 2.12.49 1.25.49 2.86 0 .82-.18 1.1-.17.28-.66.28"/></svg>