<svg width="25" height="25" viewBox="0 0 25 25" fill="none" xmlns="http://www.w3.org/2000/svg">
<g clip-path="url(#clip0_1_457)">
<path d="M21.7371 18.8717C21.3893 19.6752 20.9776 20.4149 20.5005 21.0949C19.8503 22.022 19.3179 22.6637 18.9076 23.0201C18.2716 23.605 17.5901 23.9045 16.8604 23.9216C16.3365 23.9216 15.7048 23.7725 14.9693 23.4701C14.2315 23.1691 13.5535 23.0201 12.9335 23.0201C12.2833 23.0201 11.5859 23.1691 10.84 23.4701C10.0929 23.7725 9.49111 23.9301 9.03098 23.9457C8.3312 23.9755 7.6337 23.6674 6.93748 23.0201C6.49311 22.6325 5.93729 21.968 5.27145 21.0268C4.55705 20.0216 3.96971 18.856 3.50959 17.5272C3.0168 16.0919 2.76978 14.702 2.76978 13.3564C2.76978 11.815 3.10284 10.4856 3.76996 9.37154C4.29426 8.4767 4.99176 7.77082 5.86474 7.25262C6.73772 6.73443 7.68098 6.47036 8.69678 6.45347C9.2526 6.45347 9.98148 6.6254 10.8873 6.96329C11.7905 7.30231 12.3704 7.47424 12.6247 7.47424C12.8148 7.47424 13.4591 7.27321 14.5512 6.87243C15.5841 6.50075 16.4558 6.34685 17.1699 6.40747C19.105 6.56364 20.5587 7.32645 21.5256 8.70073C19.7949 9.74932 18.9389 11.218 18.9559 13.1021C18.9715 14.5697 19.5039 15.7909 20.5502 16.7606C21.0244 17.2106 21.554 17.5584 22.1431 17.8055C22.0154 18.176 21.8805 18.5309 21.7371 18.8717V18.8717ZM17.2991 1.40782C17.2991 2.55809 16.8789 3.63208 16.0412 4.62616C15.0304 5.80793 13.8077 6.49081 12.4819 6.38305C12.465 6.24506 12.4552 6.09982 12.4552 5.9472C12.4552 4.84295 12.9359 3.66119 13.7896 2.69493C14.2158 2.2057 14.7578 1.79891 15.4151 1.47441C16.071 1.15475 16.6915 0.977966 17.275 0.947693C17.292 1.10146 17.2991 1.25525 17.2991 1.40781V1.40782Z" fill="white"/>
</g>
<defs>
<clipPath id="clip0_1_457">
<rect width="24" height="24" fill="white" transform="translate(0.456421 0.447693)"/>
</clipPath>
</defs>
</svg>
