<?xml version="1.0" encoding="UTF-8" standalone="no"?>
<!-- Created with Inkscape (http://www.inkscape.org/) -->

<svg
   width="19.843769mm"
   height="19.836273mm"
   viewBox="0 0 19.843769 19.836273"
   version="1.1"
   id="svg1611"
   inkscape:version="1.1 (c68e22c387, 2021-05-23)"
   sodipodi:docname="instagram.svg"
   xmlns:inkscape="http://www.inkscape.org/namespaces/inkscape"
   xmlns:sodipodi="http://sodipodi.sourceforge.net/DTD/sodipodi-0.dtd"
   xmlns="http://www.w3.org/2000/svg"
   xmlns:svg="http://www.w3.org/2000/svg">
  <sodipodi:namedview
     id="namedview1613"
     pagecolor="#ffffff"
     bordercolor="#000000"
     borderopacity="1"
     inkscape:pageshadow="0"
     inkscape:pageopacity="0"
     inkscape:pagecheckerboard="0"
     inkscape:document-units="mm"
     showgrid="false"
     borderlayer="true"
     fit-margin-top="0"
     fit-margin-left="0"
     fit-margin-right="0"
     fit-margin-bottom="0"
     inkscape:zoom="0.76435185"
     inkscape:cx="18.970321"
     inkscape:cy="-213.90672"
     inkscape:window-width="1920"
     inkscape:window-height="1017"
     inkscape:window-x="-8"
     inkscape:window-y="-8"
     inkscape:window-maximized="1"
     inkscape:current-layer="layer1" />
  <defs
     id="defs1608">
    <clipPath
       id="clip0_1_448">
      <rect
         width="24"
         height="24"
         fill="#ffffff"
         transform="translate(0.456421,0.237)"
         id="rect1009"
         x="0"
         y="0" />
    </clipPath>
  </defs>
  <g
     inkscape:label="Capa 1"
     inkscape:groupmode="layer"
     id="layer1"
     transform="translate(-99.931977,-205.30112)">
    <path
       style="fill:#b99bf7;fill-opacity:1;stroke-width:0.0248323"
       d="m 106.63043,225.12296 c -1.27466,-0.0409 -1.87723,-0.10367 -2.5205,-0.26245 -1.04921,-0.25899 -1.83191,-0.69326 -2.54611,-1.41267 -0.91428,-0.92096 -1.41141,-2.11589 -1.54966,-3.72482 -0.06294,-0.73262 -0.08191,-1.76673 -0.08218,-4.48225 -3.35e-4,-3.37936 0.02729,-4.2969 0.15484,-5.1404 0.15198,-1.00519 0.49237,-1.86718 1.02101,-2.58553 0.19694,-0.26763 0.76965,-0.84034 1.03727,-1.03728 0.72587,-0.53417 1.6202,-0.88385 2.63531,-1.03041 0.81897,-0.11825 1.78385,-0.14606 5.06582,-0.14603 3.97548,4e-5 4.77399,0.0392 5.7611,0.28262 0.99969,0.24649 1.8112,0.69162 2.48431,1.36268 0.70908,0.70693 1.13565,1.47733 1.39858,2.52585 0.24891,0.99262 0.30197,2.20157 0.28156,6.41444 -0.016,3.29589 -0.0452,3.94044 -0.21776,4.80191 -0.42845,2.13904 -1.86934,3.66082 -3.95013,4.17192 -0.53489,0.13138 -1.03613,0.19435 -1.92106,0.24133 -0.61728,0.0327 -6.17139,0.0494 -7.0524,0.0211 z m 7.13932,-1.80861 c 1.06007,-0.0629 1.67047,-0.19899 2.26905,-0.50593 0.89873,-0.46081 1.51661,-1.30123 1.75055,-2.38094 0.1697,-0.7833 0.18948,-1.32726 0.18948,-5.21154 0,-3.36478 -0.0143,-4.02634 -0.10132,-4.6916 -0.10283,-0.78592 -0.35018,-1.46296 -0.70776,-1.93723 -0.31017,-0.41141 -0.79373,-0.80922 -1.22695,-1.00939 -0.61764,-0.28537 -1.2242,-0.40126 -2.39655,-0.45791 -1.43464,-0.0693 -6.74978,-0.0517 -7.87188,0.0262 -1.35752,0.0941 -2.22608,0.43766 -2.88937,1.14273 -0.55299,0.58783 -0.85708,1.32284 -0.97048,2.34569 -0.0693,0.6252 -0.0907,1.38135 -0.10516,3.72485 -0.0191,3.08156 0.0237,4.94394 0.13009,5.66178 0.0721,0.4868 0.2281,1.01737 0.40146,1.36577 0.19274,0.38734 0.60137,0.86989 0.97552,1.15198 0.47104,0.35514 1.16553,0.60928 1.93744,0.70899 0.25024,0.0323 0.93518,0.0728 1.65039,0.0975 0.58671,0.0202 6.54936,-0.006 6.96549,-0.0309 z m -4.68091,-3.05801 c -0.55194,-0.0849 -0.98235,-0.22077 -1.48994,-0.47034 -2.15361,-1.05891 -3.27178,-3.48097 -2.68402,-5.81384 0.58419,-2.31868 2.72325,-3.92707 5.10517,-3.83866 0.77753,0.0288 1.48339,0.21034 2.15259,0.55346 1.50536,0.77183 2.52826,2.24086 2.73812,3.93235 0.0336,0.27034 0.0336,0.92227 9e-5,1.19326 -0.12276,0.99315 -0.52569,1.9238 -1.16174,2.68334 -0.8263,0.98673 -2.00545,1.62317 -3.30625,1.78456 -0.32926,0.0408 -1.01048,0.0287 -1.35402,-0.0241 z m 1.34095,-1.77746 c 1.1618,-0.19157 2.17699,-1.06367 2.55534,-2.19514 0.12242,-0.36613 0.17068,-0.66886 0.17023,-1.0678 -5.7e-4,-0.68846 -0.1773,-1.2723 -0.55561,-1.8379 -0.47577,-0.71127 -1.23017,-1.2203 -2.08305,-1.40552 -0.29764,-0.0646 -1.01782,-0.0656 -1.31611,-0.002 -0.66071,0.1415 -1.22183,0.44405 -1.68784,0.91007 -0.46537,0.46537 -0.77061,1.03103 -0.91161,1.68937 -0.0569,0.26544 -0.0631,0.98933 -0.0109,1.25403 0.22146,1.12209 0.9854,2.05057 2.03275,2.47058 0.57363,0.23006 1.16324,0.29009 1.8068,0.18396 z m 4.54433,-7.38539 c -0.48009,-0.0769 -0.86844,-0.43944 -0.98075,-0.9157 -0.0428,-0.18137 -0.0198,-0.49851 0.0494,-0.68134 0.0756,-0.19965 0.25701,-0.42925 0.43469,-0.55 0.61032,-0.41476 1.42732,-0.19201 1.74436,0.4756 0.0824,0.17343 0.093,0.21875 0.10163,0.43465 0.0155,0.38511 -0.0803,0.63812 -0.34175,0.90219 -0.26227,0.26497 -0.64618,0.39246 -1.0076,0.3346 z"
       id="path851" />
  </g>
</svg>
