<?xml version="1.0" encoding="UTF-8" standalone="no"?>
<!-- Created with Inkscape (http://www.inkscape.org/) -->

<svg
   width="19.843748mm"
   height="17.237959mm"
   viewBox="0 0 19.843748 17.237959"
   version="1.1"
   id="svg1611"
   inkscape:version="1.1 (c68e22c387, 2021-05-23)"
   sodipodi:docname="twitter.svg"
   xmlns:inkscape="http://www.inkscape.org/namespaces/inkscape"
   xmlns:sodipodi="http://sodipodi.sourceforge.net/DTD/sodipodi-0.dtd"
   xmlns="http://www.w3.org/2000/svg"
   xmlns:svg="http://www.w3.org/2000/svg">
  <sodipodi:namedview
     id="namedview1613"
     pagecolor="#ffffff"
     bordercolor="#000000"
     borderopacity="1"
     inkscape:pageshadow="0"
     inkscape:pageopacity="0"
     inkscape:pagecheckerboard="0"
     inkscape:document-units="mm"
     showgrid="false"
     borderlayer="true"
     fit-margin-top="0"
     fit-margin-left="0"
     fit-margin-right="0"
     fit-margin-bottom="0"
     inkscape:zoom="0.76435185"
     inkscape:cx="119.70927"
     inkscape:cy="-38.594791"
     inkscape:window-width="1920"
     inkscape:window-height="1017"
     inkscape:window-x="-8"
     inkscape:window-y="-8"
     inkscape:window-maximized="1"
     inkscape:current-layer="layer1" />
  <defs
     id="defs1608">
    <clipPath
       id="clip0_1_448">
      <rect
         width="24"
         height="24"
         fill="#ffffff"
         transform="translate(0.456421,0.237)"
         id="rect1009"
         x="0"
         y="0" />
    </clipPath>
  </defs>
  <g
     inkscape:label="Capa 1"
     inkscape:groupmode="layer"
     id="layer1"
     transform="translate(-73.394719,-158.95137)">
    <path
       style="fill:#b99bf7;fill-opacity:1;stroke-width:0.0202881"
       d="m 78.177683,176.17472 c -1.65862,-0.12422 -3.28476,-0.56554 -4.5344,-1.23062 -0.14006,-0.0745 -0.14117,-0.0758 -0.0812,-0.0902 0.0335,-0.008 0.22064,-0.0291 0.41591,-0.0468 0.78802,-0.0714 1.61993,-0.22552 2.21027,-0.4095 0.53697,-0.16736 1.28033,-0.54345 2.17197,-1.0989 0.32335,-0.20144 0.90783,-0.58824 0.92097,-0.60948 0.007,-0.0104 -0.14115,-0.071 -0.32787,-0.13473 -1.30646,-0.44604 -2.30397,-0.93859 -2.82488,-1.39487 -0.32284,-0.28277 -0.81887,-0.8615 -1.02612,-1.19717 l -0.091,-0.14748 0.0565,-0.0128 c 0.0311,-0.007 0.34408,-0.014 0.69557,-0.0153 0.3515,-0.002 0.85127,-0.008 1.11061,-0.0158 l 0.47154,-0.0133 -0.30923,-0.17571 c -1.15104,-0.65408 -2.08505,-1.32391 -2.58169,-1.85149 -0.35576,-0.37792 -0.66145,-0.92745 -0.87439,-1.57192 -0.0835,-0.2528 -0.20351,-0.77045 -0.18326,-0.7907 0.005,-0.005 0.40428,0.15111 0.88705,0.34714 0.48278,0.19603 0.88083,0.35338 0.88457,0.34964 0.004,-0.004 -0.0788,-0.13377 -0.18341,-0.28897 -0.46398,-0.68841 -0.92302,-1.53536 -1.17194,-2.16232 -0.29143,-0.73402 -0.39765,-1.32303 -0.37624,-2.08619 0.012,-0.42605 0.0425,-0.66839 0.12605,-0.99781 0.0539,-0.21248 0.16707,-0.52466 0.18961,-0.52275 0.007,5.6e-4 0.0645,0.0759 0.12825,0.16737 0.41927,0.60172 1.29798,1.3661 2.32138,2.01937 2.16087,1.37933 4.52709,2.18304 6.82926,2.31962 0.22033,0.013 0.40561,0.0188 0.41172,0.0126 0.006,-0.006 -0.007,-0.10323 -0.0306,-0.21583 -0.081,-0.39763 -0.10749,-0.72958 -0.0964,-1.21029 0.007,-0.33158 0.0217,-0.51087 0.0547,-0.69733 0.12253,-0.69309 0.35363,-1.25531 0.7266,-1.76767 0.14759,-0.20275 0.60251,-0.6501 0.81376,-0.80023 0.63296,-0.4498 1.35766,-0.74757 2.07408,-0.8522 0.28003,-0.0409 0.80958,-0.041 1.09035,-1.4e-4 0.90404,0.13145 1.7808,0.58192 2.50579,1.28743 l 0.24792,0.24127 0.29315,-0.0888 c 0.54722,-0.16586 0.7162,-0.23066 1.59999,-0.61358 0.0158,-0.007 0.0239,-0.004 0.018,0.007 -0.25252,0.44027 -0.93009,1.67803 -0.92266,1.68546 0.006,0.006 0.32172,-0.023 0.70224,-0.0639 0.38051,-0.0408 0.70218,-0.0708 0.7148,-0.0667 0.0335,0.0112 -0.17866,0.24818 -0.52277,0.58384 -0.16587,0.1618 -0.46837,0.45819 -0.67221,0.65864 l -0.37063,0.36448 v 0.32815 c 0,0.87947 -0.1138,1.96897 -0.30494,2.91939 -0.32203,1.60119 -0.87917,3.01047 -1.65227,4.17935 -0.81862,1.23772 -1.86195,2.39831 -2.90179,3.2279 -1.81191,1.44555 -3.90389,2.25476 -6.50235,2.51523 -0.38543,0.0386 -1.74989,0.0568 -2.13026,0.0283 z"
       id="path7869" />
  </g>
</svg>
